<?xml version="1.0" encoding="UTF-8"?>
<svg width="106.8" height="144.8" version="1.1" viewBox="0 0 106.8 144.8" xml:space="preserve" xmlns="http://www.w3.org/2000/svg"><path d="m94.88 121.2 11.6-18.25h-10.01l-9.242 15.48v-15.48h-8.653v41.86h8.653v-13.65l1.884-3.237 7.83 16.89h9.83zm8.888-39.78 0.0587-29.43h-8.653l-0.0587 29.49c0.0587 2.531-1.472 5.003-4.298 5.003-3.061 0-4.296-2.471-4.355-5.003l0.0587-29.49h-8.652v29.43c0 6.946 4.708 13.18 12.95 13.18 8.241 0 13.01-6.24 12.95-13.18zm-8.594-72.38h8.653l-4.985-8.065h-21.86v8.065h9.595v33.72h8.594zm-28.66 72.38v-17.13c0-7.005-5.061-13.24-13.54-13.24s-13.54 6.238-13.54 13.24v17.13c0 7.122 5.004 13.3 13.54 13.3 8.539 0 13.54-6.181 13.54-13.3zm-8.652 0.1177c0 2.59-1.59 5.063-4.885 5.063-3.296 0-4.887-2.471-4.887-5.063v-17.3c0-2.531 1.649-5.063 4.887-5.063 3.238 0 4.885 2.531 4.885 5.063zm8.652-51.13v-17.13c0-7.005-5.061-13.24-13.54-13.24s-13.54 6.24-13.54 13.24v17.13c0 7.122 5.004 13.3 13.54 13.3 8.539 0 13.54-6.18 13.54-13.3zm-8.652 0.1173c0 2.59-1.59 5.063-4.885 5.063-3.296 0-4.887-2.473-4.887-5.063v-17.3c0-2.531 1.649-5.063 4.887-5.063 3.238 0 4.885 2.531 4.885 5.063zm-38.62 12.24 11.01-41.86h-9.182l-5.945 26.49-6.064-26.49h-9.064l10.83 41.86zm-3.65 60.18h-13.01v41.86h13.3c9.007 0 13.19-6.24 13.19-12.77 0-3.708-1.59-7.417-5.004-9.712 2.943-1.825 4.122-4.827 4.122-8.006 0-5.297-3.179-11.36-12.6-11.36zm-4.415 24.25h4.356c2.942 0 4.825 1.825 4.825 4.827 0 3.002-1.884 4.768-4.825 4.768h-4.356zm4.12-16.25c2.707 0 4.298 1.53 4.298 4.12 0 2.59-1.59 4.12-4.356 4.12h-4.062v-8.241zm14.77-17.17-8.537-17.72c4.945-2.238 7.005-7.122 7.005-11.42 0-5.887-3.826-12.71-13.48-12.71h-12.36v41.86h8.594v-16.42h1.942l7.122 16.42zm-10.13-29.14c0 3.002-1.825 4.767-4.767 4.767h-3.884v-9.476h3.884c2.943 0 4.767 1.766 4.767 4.709zm44.74 38.3h-23.01v41.86h23.01v-8.065h-14.42v-9.359h13.54v-8.123h-13.54v-8.241h14.42v-8.063" stroke-width=".1333"/></svg>
