<?xml version="1.0" encoding="UTF-8"?>
<svg width="247.2" height="144.8" version="1.1" viewBox="0 0 247.2 144.8" xml:space="preserve" xmlns="http://www.w3.org/2000/svg"><path d="m247.1 135.5c0-1.513-1.23-2.743-2.742-2.743h-9.34c-0.7398 0-1.34-0.5998-1.34-1.34v-16.68c0.056-0.2084 0.1466-0.4051 0.2959-0.5655 0.2546-0.2718 0.6078-0.425 0.9798-0.425h4.147c1.512 0 2.743-1.23 2.743-2.743 0-1.512-1.232-2.742-2.743-2.742h-12.25c-0.7398 0-1.341-0.5998-1.341-1.34v-44.24c0-0.1437 0.0227-0.2865 0.0693-0.4239l7.954-23.86c0.1426-0.4279 0.18-0.8824 0.1053-1.317l-4.083-24.5c-0.2213-1.329-1.358-2.293-2.705-2.293h-20.41c-1.348 0-2.485 0.9638-2.706 2.294l-4.083 24.5c-0.0733 0.4306-0.0373 0.8851 0.1053 1.313l7.954 23.86c0.0467 0.1374 0.0693 0.2802 0.0693 0.4239v44.24c0 0.7399-0.5998 1.34-1.34 1.34h-12.25c-1.513 0-2.743 1.23-2.743 2.742 0 1.513 1.23 2.743 2.743 2.743h4.147c0.3706 0 0.7252 0.1532 0.9784 0.425 0.1506 0.1604 0.2399 0.3571 0.2973 0.5654v16.68c0 0.7394-0.5998 1.34-1.34 1.34h-9.34c-1.512 0-2.743 1.23-2.743 2.743 0 1.512 1.232 2.742 2.743 2.742h55.43c1.512 0 2.742-1.23 2.742-2.742zm-26.93-74.35c-0.0946 0.2833-0.1426 0.5759-0.1426 0.867v44.91c0 0.74-0.5998 1.34-1.34 1.34h-4.083c-0.7398 0-1.341-0.5998-1.341-1.34v-44.91c0-0.2911-0.0467-0.5837-0.1413-0.8675l-7.842-23.54c-0.0693-0.2066-0.0866-0.4279-0.0506-0.6425l3.344-20.09c0.108-0.6465 0.6665-1.12 1.322-1.12h13.5c0.6545 0 1.214 0.4732 1.321 1.12l3.344 20.09c0.036 0.2146 0.0187 0.4359-0.0507 0.6425zm8.023 70.28c0 0.7394-0.5998 1.34-1.34 1.34h-20.41c-0.7398 0-1.341-0.5998-1.341-1.34v-15.52c0-0.404 0.0507-0.7946 0.1493-1.164 0.1573-0.5868 0.6878-0.993 1.294-0.993h20.21c0.6065 0 1.137 0.4062 1.294 0.993 0.0986 0.3692 0.1493 0.7598 0.1493 1.164zm-48.19-82.9c8.545-8.55 8.195-21.78-0.8118-30.79-4.705-4.708-11.03-7.409-17.34-7.409-5.515 0-10.59 2.039-14.29 5.741l-12.26 12.26-14.84 13.98c-0.2586 0.2426-0.5892 0.3639-0.9198 0.3639-0.3439 0-0.6865-0.1306-0.9478-0.3919l-31.19-31.19c-0.5187-0.5185-1.206-0.8038-1.938-0.8038s-1.42 0.2853-1.938 0.8038l-24.49 24.5c-0.5187 0.5185-0.8041 1.206-0.8041 1.938s0.2854 1.421 0.8041 1.94l30.29 30.3c0.2561 0.2557 0.3972 0.6061 0.3926 0.968-0.0057 0.3624-0.1578 0.7072-0.4218 0.956l-17.89 16.85c-0.02613 0.03026-0.05372 0.05839-0.08185 0.08491l-0.0036 0.0041 0.0027-0.0025c-0.2073 0.2014-0.3859 0.4571-0.5457 0.7846-0.03386 0.06878-0.05785 0.137-0.08651 0.2098-0.03279 0.08545-0.06918 0.1677-0.1197 0.2594l-12.25 44.91c-0.2713 0.9935 0.05105 2.079 0.8217 2.767 0.4999 0.4478 1.147 0.6946 1.824 0.6946 0.3499 0 0.693-0.0667 1.017-0.1964l40.82-16.33c0.2426-0.0973 0.4852-0.2562 0.7785-0.5133 0.064-0.0548 0.1266-0.1 0.1853-0.136l18.17-17.12c0.2506-0.2349 0.5798-0.364 0.9184-0.364 0.06 0 0.1213 4e-3 0.1813 0.012 0.0666 9e-3 0.12 0.0494 0.1853 0.0693l33.78 33.78c0.5172 0.5187 1.205 0.8041 1.938 0.8041 0.7318 0 1.42-0.2854 1.938-0.8041l24.49-24.5c0.5185-0.5171 0.8038-1.206 0.8038-1.938 0-0.7332-0.2853-1.421-0.8038-1.94l-32.43-32.43c-0.2559-0.2551-0.3972-0.6056-0.3919-0.9675 5e-3 -0.3618 0.1573-0.707 0.4212-0.9554l14.64-13.8c0.0253-0.03279 0.0547-0.06452 0.0853-0.09424 0.044-0.04519 0.096-0.09158 0.1533-0.1348zm-52.79 51.13c-0.0293-0.4024 0.1226-0.7971 0.4172-1.075l19.38-18.26c0.2586-0.2431 0.5892-0.3639 0.9184-0.3639 0.3439 0 0.6865 0.1317 0.9491 0.392l7.261 7.264c0.5239 0.5233 0.5239 1.372 0 1.896l-5.277 5.28c-1.069 1.069-1.069 2.809 0 3.876 0.5185 0.5185 1.206 0.8039 1.938 0.8039 0.7318 0 1.421-0.2854 1.94-0.8025l5.277-5.279c0.2626-0.2625 0.6052-0.3926 0.9478-0.3926s0.6865 0.1301 0.9478 0.3926l4.432 4.434c0.5239 0.5232 0.5239 1.372 0 1.896l-5.277 5.279c-1.069 1.069-1.069 2.809 0 3.879 0.5172 0.5176 1.206 0.8023 1.938 0.8023 0.7318 0 1.421-0.2847 1.938-0.8023l5.279-5.279c0.2613-0.263 0.6052-0.3936 0.9478-0.3936s0.6852 0.1306 0.9478 0.3936l6.474 6.473c0.2506 0.2519 0.3932 0.593 0.3932 0.9492 0 0.3556-0.1426 0.6957-0.3932 0.9476l-18.72 18.73c-0.2626 0.2609-0.6052 0.3916-0.9478 0.3916-0.3439 0-0.6852-0.1308-0.9478-0.3916l-30.66-30.66c-0.0453-0.1192-0.1013-0.2358-0.112-0.3666zm-26.3 14.78-8.569-8.57c-0.2562-0.2571-0.3978-0.6065-0.392-0.9695 0.0057-0.3624 0.1582-0.7077 0.4228-0.9571l58.21-54.63c0.2586-0.2421 0.5892-0.3619 0.9171-0.3619 0.3439 0 0.6865 0.1313 0.9478 0.3927l8.451 8.451c0.2573 0.2562 0.3986 0.6056 0.3932 0.968-5e-3 0.3624-0.1586 0.7066-0.4212 0.956l-58.09 54.73c-0.2586 0.2438-0.5878 0.3651-0.9184 0.3651-0.3439 0-0.6865-0.1318-0.9478-0.3932zm-24.67-16.92 19.22 19.22c0.3187 0.318 0.4567 0.7753 0.3655 1.217-0.09051 0.441-0.3967 0.8075-0.8154 0.9758l-9.515 3.807c-0.1634 0.0656-0.3322 0.0957-0.4972 0.0957-0.08798 0-0.1636-0.053-0.2489-0.0703l-13.18-13.18c-0.3411-0.3395-0.4723-0.8367-0.3458-1.3l2.774-10.17c0.1261-0.4614 0.488-0.8201 0.9488-0.943 0.1145-0.03079 0.2301-0.04479 0.3442-0.04479 0.3508 0 0.693 0.1374 0.9482 0.3926zm38.68-50.56c-5e-3 0.3614-0.1573 0.7066-0.4212 0.955l-19.28 18.17c-0.2583 0.2438-0.5885 0.3651-0.9186 0.3651-0.3436 0-0.6868-0.1322-0.9482-0.3936l-27.58-27.58c-0.5233-0.5225-0.5233-1.372 0-1.894l18.72-18.73c0.2515-0.2519 0.5921-0.3932 0.9472-0.3932 0.3562 0 0.6966 0.1413 0.9482 0.3932l6.473 6.474c0.5232 0.5239 0.5232 1.373 0 1.896l-5.277 5.28c-1.069 1.069-1.069 2.809 0 3.876 0.5176 0.5185 1.206 0.8038 1.938 0.8038 0.7316 0 1.421-0.2853 1.94-0.8025l5.277-5.28c0.2519-0.2519 0.5932-0.3932 0.9478-0.3932 0.3559 0 0.6972 0.1413 0.9478 0.3932l4.434 4.434c0.2506 0.2519 0.3932 0.5919 0.3932 0.9478 0 0.3546-0.1426 0.6958-0.3932 0.9478l-5.28 5.28c-1.068 1.069-1.068 2.809 0 3.878 0.5185 0.518 1.208 0.8034 1.94 0.8034 0.7318 0 1.42-0.2854 1.938-0.803l5.28-5.281c0.2519-0.2506 0.5932-0.3932 0.9478-0.3932 0.3559 0 0.6972 0.1426 0.9478 0.3932l5.684 5.687c0.2573 0.2557 0.3986 0.605 0.3932 0.9679zm23.18-11.96 8.569 8.57c0.2559 0.2562 0.3986 0.605 0.3932 0.9691-7e-3 0.363-0.1586 0.7072-0.4239 0.9566l-58.21 54.63c-0.2583 0.2431-0.5879 0.3628-0.9175 0.3628-0.3436 0-0.6852-0.1317-0.9471-0.3926l-8.451-8.453c-0.2573-0.2557-0.3978-0.6061-0.3926-0.968 0.0047-0.3619 0.1573-0.7072 0.4207-0.9555l58.09-54.73c0.2586-0.2439 0.5878-0.3652 0.9184-0.3652 0.3439 0 0.6865 0.132 0.9478 0.3932zm12.33-12.16 22.81 22.81c0.2519 0.2514 0.3932 0.5925 0.3932 0.9482s-0.1413 0.6966-0.3932 0.9476l-6.474 6.474c-0.2506 0.2515-0.5918 0.3927-0.9478 0.3927-0.3546 0-0.6958-0.1412-0.9464-0.3927l-22.81-22.81c-0.5225-0.5239-0.5225-1.372 0-1.896l6.474-6.474c0.2613-0.2613 0.6052-0.3932 0.9478-0.3932 0.3426 0 0.6852 0.132 0.9464 0.3932zm28.35 18.18c-0.2026 0.3692-0.5678 0.6212-0.9851 0.6798-0.0626 8e-3 -0.1253 0.01333-0.188 0.01333-0.3519 0-0.6932-0.1386-0.9478-0.3932l-21.82-21.83c-0.3053-0.3053-0.4439-0.7398-0.3746-1.166 0.0707-0.4266 0.3426-0.7918 0.7318-0.9838 2.006-0.9864 4.222-1.488 6.585-1.488 4.86 0 9.918 2.157 13.53 5.769 5.548 5.549 6.913 13.16 3.475 19.4zm-124.3-11.66c0-10.16-12.73-19.08-27.23-19.08-14.25 0-27.23 9.091-27.23 19.08 0 1.512 1.231 2.743 2.743 2.743h12.25c0.7399 0 1.34 0.5998 1.34 1.34v9.986c0 0.4869-0.2639 0.9352-0.6904 1.172-0.2021 0.1125-0.4255 0.1682-0.6494 0.1682-0.2467 0-0.4936-0.06825-0.7097-0.2035l-1.92-1.199c-0.439-0.2755-0.943-0.4206-1.454-0.4206-0.9514 0-1.82 0.4815-2.323 1.291-0.3884 0.6217-0.5119 1.358-0.3472 2.073 0.165 0.7133 0.5967 1.319 1.218 1.706l6.248 3.906c0.3911 0.2451 0.629 0.6748 0.629 1.137v14.86c0 0.4863-0.2639 0.9356-0.6904 1.172-0.2021 0.1125-0.4255 0.1682-0.6494 0.1682-0.2467 0-0.4936-0.06825-0.7097-0.2037l-1.92-1.199c-0.4384-0.2743-0.941-0.4196-1.453-0.4196-0.9518 0-1.822 0.4821-2.326 1.29-0.3884 0.6217-0.5119 1.358-0.3472 2.073 0.165 0.7129 0.5967 1.319 1.218 1.706l6.248 3.906c0.3911 0.2458 0.629 0.6749 0.629 1.137v14.86c0 0.4868-0.2639 0.9356-0.6904 1.172-0.2021 0.1124-0.4255 0.1681-0.6494 0.1681-0.2467 0-0.4936-0.06812-0.7097-0.2035l-1.92-1.199c-0.439-0.2761-0.943-0.4208-1.454-0.4208-0.9514 0-1.82 0.4817-2.323 1.291-0.3884 0.6217-0.5119 1.358-0.3472 2.071 0.165 0.7134 0.5967 1.319 1.218 1.706l6.248 3.906c0.3911 0.2451 0.629 0.6742 0.629 1.136v21.21c0 0.5425 0.1594 1.069 0.4608 1.521l8.166 12.25c0.5092 0.765 1.362 1.221 2.282 1.221 0.9196 0 1.773-0.4562 2.282-1.221l8.166-12.25c0.3015-0.452 0.4603-0.9784 0.4603-1.521v-5.903c0-0.4879 0.2646-0.9356 0.6905-1.172 0.2025-0.1129 0.4259-0.1692 0.6498-0.1692 0.2463 0 0.4931 0.0683 0.7097 0.2041l1.92 1.2c0.4358 0.2718 0.9367 0.4171 1.449 0.4171 0.9544 0 1.825-0.4811 2.329-1.288 0.389-0.6228 0.5124-1.358 0.3474-2.073-0.1646-0.7129-0.5968-1.318-1.217-1.706l-6.248-3.906c-0.3911-0.2451-0.6296-0.6748-0.6296-1.136v-14.86c0-0.4863 0.2646-0.9352 0.6905-1.172 0.2025-0.1125 0.4259-0.1682 0.6498-0.1682 0.2463 0 0.4931 0.06825 0.7097 0.2037l1.92 1.199c0.4358 0.2729 0.9367 0.4175 1.449 0.4175 0.9544 0 1.825-0.4811 2.329-1.288 0.389-0.6217 0.5124-1.357 0.3474-2.073-0.1646-0.7129-0.5968-1.319-1.217-1.706l-6.248-3.906c-0.3911-0.2453-0.6296-0.6749-0.6296-1.136v-14.86c0-0.4868 0.2646-0.9356 0.6905-1.172 0.2025-0.1124 0.4259-0.1676 0.6498-0.1676 0.2463 0 0.4931 0.06758 0.7097 0.203l1.92 1.199c0.4358 0.2729 0.9367 0.4182 1.449 0.4182 0.9544 0 1.825-0.4812 2.329-1.289 0.389-0.6217 0.5124-1.357 0.3474-2.073-0.1646-0.7129-0.5968-1.318-1.217-1.706l-6.248-3.906c-0.3911-0.2453-0.6296-0.6742-0.6296-1.137v-25.3c0-0.7398 0.6004-1.34 1.341-1.34h12.25c1.512 0 2.743-1.232 2.743-2.743zm-32.66 77.79c0-0.4879 0.2645-0.9356 0.6898-1.172 0.2031-0.113 0.4266-0.1692 0.6498-0.1692 0.2469 0 0.4936 0.0681 0.7102 0.2041l8.165 5.104c0.3922 0.2453 0.6306 0.6742 0.6306 1.136v9.771c0 0.2641-0.07865 0.5223-0.2255 0.7425l-4.083 6.125c-0.2485 0.3718-0.6665 0.5956-1.115 0.5956-0.4483 0-0.8659-0.2238-1.115-0.5956l-4.083-6.125c-0.1464-0.2202-0.2249-0.4784-0.2249-0.7425zm0-24.5c0-0.488 0.2645-0.9358 0.6898-1.172 0.2031-0.1125 0.4266-0.1682 0.6498-0.1682 0.2469 0 0.4936 0.06825 0.7102 0.2035l8.165 5.103c0.3922 0.2453 0.6306 0.6744 0.6306 1.137v14.86c0 0.4879-0.2646 0.9356-0.6905 1.172-0.203 0.112-0.4259 0.1677-0.6498 0.1677-0.2467 0-0.4931-0.0683-0.7097-0.2026l-8.166-5.104c-0.3915-0.2447-0.63-0.6742-0.63-1.136zm0-24.5c0-0.4873 0.2645-0.9356 0.6898-1.172 0.2031-0.1125 0.4266-0.1677 0.6498-0.1677 0.2469 0 0.4936 0.06772 0.7102 0.2031l8.165 5.104c0.3922 0.2453 0.6306 0.6742 0.6306 1.136v14.86c0 0.4875-0.2646 0.9358-0.6905 1.172-0.203 0.1125-0.4259 0.1682-0.6498 0.1682-0.2467 0-0.4931-0.06825-0.7097-0.2035l-8.166-5.103c-0.3915-0.2453-0.63-0.6749-0.63-1.137zm0-24.71c0-0.7398 0.5998-1.34 1.34-1.34h8.166c0.7399 0 1.341 0.5998 1.341 1.34v20.19c0 0.4873-0.2646 0.9356-0.6905 1.172-0.203 0.1125-0.4259 0.1682-0.6498 0.1682-0.2467 0-0.4931-0.06825-0.7097-0.2037l-8.166-5.103c-0.3915-0.2453-0.63-0.6744-0.63-1.136zm25.53-7.547c-0.2313 0.4439-0.6889 0.7225-1.19 0.7225h-37.72c-0.5045 0-0.9664-0.2839-1.195-0.7345-0.2281-0.4492-0.1849-0.9891 0.1125-1.396 3.17-4.339 10.55-8.715 19.89-8.715 9.574 0 16.94 4.386 20.01 8.734 0.2881 0.4092 0.3239 0.9451 0.09384 1.389" fill="#cbebec" stroke-width=".1333"/><path d="m160 121.2 11.6-18.25h-10.01l-9.242 15.48v-15.48h-8.653v41.86h8.653v-13.65l1.884-3.237 7.83 16.89h9.83zm8.888-39.78 0.0587-29.43h-8.653l-0.0587 29.49c0.0587 2.531-1.472 5.003-4.298 5.003-3.061 0-4.296-2.471-4.355-5.003l0.0587-29.49h-8.652v29.43c0 6.946 4.708 13.18 12.95 13.18 8.241 0 13.01-6.24 12.95-13.18zm-8.594-72.38h8.653l-4.985-8.065h-21.86v8.065h9.595v33.72h8.594zm-24.66 72.38v-17.13c0-7.005-5.061-13.24-13.54-13.24s-13.54 6.238-13.54 13.24v17.13c0 7.122 5.004 13.3 13.54 13.3 8.539 0 13.54-6.181 13.54-13.3zm-8.652 0.1177c0 2.59-1.59 5.063-4.885 5.063-3.296 0-4.887-2.471-4.887-5.063v-17.3c0-2.531 1.649-5.063 4.887-5.063 3.238 0 4.885 2.531 4.885 5.063zm8.652-51.13v-17.13c0-7.005-5.061-13.24-13.54-13.24s-13.54 6.24-13.54 13.24v17.13c0 7.122 5.004 13.3 13.54 13.3 8.539 0 13.54-6.18 13.54-13.3zm-8.652 0.1173c0 2.59-1.59 5.063-4.885 5.063-3.296 0-4.887-2.473-4.887-5.063v-17.3c0-2.531 1.649-5.063 4.887-5.063 3.238 0 4.885 2.531 4.885 5.063zm-34.62 12.24 11.01-41.86h-9.182l-5.945 26.49-6.064-26.49h-9.064l10.83 41.86zm-3.65 60.18h-13.01v41.86h13.3c9.007 0 13.19-6.24 13.19-12.77 0-3.708-1.59-7.417-5.004-9.712 2.943-1.825 4.122-4.827 4.122-8.006 0-5.297-3.179-11.36-12.6-11.36zm-4.415 24.25h4.356c2.942 0 4.825 1.825 4.825 4.827 0 3.002-1.884 4.768-4.825 4.768h-4.356zm4.12-16.25c2.707 0 4.298 1.53 4.298 4.12 0 2.59-1.59 4.12-4.356 4.12h-4.062v-8.241zm14.77-17.17-8.537-17.72c4.945-2.238 7.005-7.122 7.005-11.42 0-5.887-3.826-12.71-13.48-12.71h-12.36v41.86h8.594v-16.42h1.942l7.122 16.42zm-10.13-29.14c0 3.002-1.825 4.767-4.767 4.767h-3.884v-9.476h3.884c2.943 0 4.767 1.766 4.767 4.709zm40.74 38.3h-23.01v41.86h23.01v-8.065h-14.42v-9.359h13.54v-8.123h-13.54v-8.241h14.42v-8.063" fill="#231f20" stroke-width=".1333"/></svg>
