<?xml version="1.0" encoding="UTF-8" standalone="no"?>
<svg
   xmlns:dc="http://purl.org/dc/elements/1.1/"
   xmlns:cc="http://creativecommons.org/ns#"
   xmlns:rdf="http://www.w3.org/1999/02/22-rdf-syntax-ns#"
   xmlns:svg="http://www.w3.org/2000/svg"
   xmlns="http://www.w3.org/2000/svg"
   viewBox="0 0 321.25333 207.88"
   height="207.88"
   width="321.25333"
   xml:space="preserve"
   id="svg2"
   version="1.1"><metadata
     id="metadata8"><rdf:RDF><cc:Work
         rdf:about=""><dc:format>image/svg+xml</dc:format><dc:type
           rdf:resource="http://purl.org/dc/dcmitype/StillImage" /></cc:Work></rdf:RDF></metadata><defs
     id="defs6" /><g
     transform="matrix(1.3333333,0,0,-1.3333333,0,207.88)"
     id="g10"><g
       transform="scale(0.1)"
       id="g12"><path
         id="path14"
         style="fill:#99dddf;fill-opacity:1;fill-rule:nonzero;stroke:none"
         d="m 2131.59,305.93 c 0,11.351 -9.23,20.582 -20.57,20.582 h -70.07 c -5.55,0 -10.05,4.5 -10.05,10.047 v 89.351 27.039 8.75 c 0.42,1.563 1.1,3.039 2.22,4.242 1.91,2.039 4.56,3.188 7.35,3.188 h 31.11 c 11.34,0 20.58,9.23 20.58,20.582 0,11.34 -9.24,20.57 -20.58,20.57 h -91.88 c -5.55,0 -10.06,4.5 -10.06,10.051 v 331.945 c 0,1.078 0.17,2.149 0.52,3.18 l 59.67,179.043 c 1.07,3.21 1.35,6.62 0.79,9.88 l -30.63,183.78 c -1.66,9.97 -10.19,17.2 -20.29,17.2 h -153.14 c -10.11,0 -18.64,-7.23 -20.3,-17.21 l -30.63,-183.8 c -0.55,-3.23 -0.28,-6.64 0.79,-9.85 l 59.67,-179.043 c 0.35,-1.031 0.52,-2.102 0.52,-3.18 V 520.332 c 0,-5.551 -4.5,-10.051 -10.05,-10.051 h -91.89 c -11.35,0 -20.58,-9.23 -20.58,-20.57 0,-11.352 9.23,-20.582 20.58,-20.582 h 31.11 c 2.78,0 5.44,-1.149 7.34,-3.188 1.13,-1.203 1.8,-2.679 2.23,-4.242 v -8.75 -40.668 -75.722 c 0,-5.547 -4.5,-10.047 -10.05,-10.047 h -70.07 c -11.34,0 -20.58,-9.231 -20.58,-20.582 0,-11.34 9.24,-20.571 20.58,-20.571 h 415.79 c 11.34,0 20.57,9.231 20.57,20.571 z m -202.03,557.82 c -0.71,-2.125 -1.07,-4.32 -1.07,-6.504 V 520.332 c 0,-5.551 -4.5,-10.051 -10.05,-10.051 h -30.63 c -5.55,0 -10.06,4.5 -10.06,10.051 v 336.914 c 0,2.184 -0.35,4.379 -1.06,6.508 l -58.83,176.566 c -0.52,1.55 -0.65,3.21 -0.38,4.82 l 25.09,150.66 c 0.81,4.85 5,8.4 9.92,8.4 h 101.28 c 4.91,0 9.11,-3.55 9.91,-8.4 l 25.09,-150.66 c 0.27,-1.61 0.14,-3.27 -0.38,-4.82 z m 60.19,-527.191 c 0,-5.547 -4.5,-10.047 -10.05,-10.047 h -153.14 c -5.55,0 -10.06,4.5 -10.06,10.047 v 116.39 c 0,3.031 0.38,5.961 1.12,8.731 1.18,4.402 5.16,7.449 9.71,7.449 h 151.59 c 4.55,0 8.53,-3.047 9.71,-7.449 0.74,-2.77 1.12,-5.7 1.12,-8.731 z m -361.48,621.886 c 64.1,64.135 61.48,163.445 -6.09,230.985 -35.3,35.32 -82.73,55.58 -130.14,55.58 -41.37,0 -79.44,-15.3 -107.21,-43.07 l -91.95,-91.96 -111.33,-104.91 c -1.94,-1.82 -4.42,-2.73 -6.9,-2.73 -2.58,0 -5.15,0.98 -7.11,2.94 l -234.032,234.05 c -3.891,3.89 -9.051,6.03 -14.543,6.03 -5.492,0 -10.652,-2.14 -14.543,-6.03 L 720.688,1055.55 c -3.891,-3.89 -6.032,-9.05 -6.032,-14.54 0,-5.49 2.141,-10.66 6.032,-14.55 l 227.25,-227.28 c 1.921,-1.918 2.98,-4.547 2.945,-7.262 -0.043,-2.719 -1.184,-5.305 -3.164,-7.172 L 813.512,658.297 c -0.196,-0.227 -0.403,-0.438 -0.614,-0.637 l -0.027,-0.031 0.02,0.019 c -1.555,-1.511 -2.895,-3.429 -4.094,-5.886 -0.254,-0.516 -0.434,-1.028 -0.649,-1.574 -0.246,-0.641 -0.519,-1.258 -0.898,-1.946 l -91.871,-336.91 c -2.035,-7.453 0.383,-15.602 6.164,-20.762 3.75,-3.359 8.605,-5.211 13.684,-5.211 2.625,0 5.199,0.5 7.628,1.473 L 1049.1,409.34 c 1.82,0.73 3.64,1.922 5.84,3.851 0.48,0.411 0.95,0.75 1.39,1.02 l 136.32,128.449 c 1.88,1.762 4.35,2.731 6.89,2.731 0.45,0 0.91,-0.032 1.36,-0.09 0.5,-0.071 0.9,-0.371 1.39,-0.52 l 253.36,-253.39 c 3.88,-3.891 9.04,-6.032 14.54,-6.032 5.49,0 10.65,2.141 14.54,6.032 l 183.74,183.769 c 3.89,3.879 6.03,9.051 6.03,14.539 0,5.5 -2.14,10.66 -6.03,14.551 L 1425.2,747.555 c -1.92,1.914 -2.98,4.543 -2.94,7.258 0.04,2.714 1.18,5.304 3.16,7.167 l 109.8,103.458 c 0.19,0.246 0.41,0.484 0.64,0.707 0.33,0.339 0.72,0.687 1.15,1.011 z m -395.99,-383.55 c -0.22,3.019 0.92,5.98 3.13,8.062 l 145.41,137.012 c 1.94,1.824 4.42,2.73 6.89,2.73 2.58,0 5.15,-0.988 7.12,-2.941 l 54.47,-54.492 c 3.93,-3.926 3.93,-10.293 0,-14.215 l -39.59,-39.606 c -8.02,-8.023 -8.02,-21.066 0,-29.082 3.89,-3.89 9.05,-6.031 14.54,-6.031 5.49,0 10.66,2.141 14.55,6.02 l 39.59,39.601 c 1.97,1.969 4.54,2.945 7.11,2.945 2.57,0 5.15,-0.976 7.11,-2.945 l 33.25,-33.258 c 3.93,-3.925 3.93,-10.289 0,-14.218 l -39.59,-39.598 c -8.02,-8.02 -8.02,-21.07 0,-29.098 3.88,-3.883 9.05,-6.019 14.54,-6.019 5.49,0 10.66,2.136 14.54,6.019 l 39.6,39.598 c 1.96,1.973 4.54,2.953 7.11,2.953 2.57,0 5.14,-0.98 7.11,-2.953 l 48.57,-48.559 c 1.88,-1.89 2.95,-4.449 2.95,-7.121 0,-2.668 -1.07,-5.219 -2.95,-7.109 L 1477.3,342.129 c -1.97,-1.957 -4.54,-2.938 -7.11,-2.938 -2.58,0 -5.14,0.981 -7.11,2.938 l -229.96,230.016 c -0.34,0.894 -0.76,1.769 -0.84,2.75 z m -197.3,-110.875 -64.285,64.289 c -1.922,1.929 -2.984,4.55 -2.941,7.273 0.043,2.719 1.187,5.309 3.172,7.18 l 436.694,409.75 c 1.94,1.816 4.42,2.715 6.88,2.715 2.58,0 5.15,-0.985 7.11,-2.946 l 63.4,-63.402 c 1.93,-1.922 2.99,-4.543 2.95,-7.262 -0.04,-2.719 -1.19,-5.301 -3.16,-7.172 L 1048.98,463.809 c -1.94,-1.829 -4.41,-2.739 -6.89,-2.739 -2.58,0 -5.15,0.989 -7.11,2.95 z M 849.879,590.969 994.078,446.738 c 2.391,-2.386 3.426,-5.816 2.742,-9.129 -0.679,-3.308 -2.976,-6.058 -6.117,-7.32 L 919.32,401.73 c -1.226,-0.492 -2.492,-0.718 -3.73,-0.718 -0.66,0 -1.227,0.398 -1.867,0.527 l -98.871,98.883 c -2.559,2.547 -3.543,6.277 -2.594,9.75 l 20.808,76.332 c 0.946,3.461 3.661,6.152 7.118,7.074 0.859,0.231 1.726,0.336 2.582,0.336 2.632,0 5.199,-1.031 7.113,-2.945 z m 290.231,379.254 c -0.04,-2.711 -1.18,-5.301 -3.16,-7.164 L 992.313,826.77 c -1.938,-1.829 -4.415,-2.739 -6.891,-2.739 -2.578,0 -5.152,0.992 -7.113,2.953 L 771.422,1033.91 c -3.926,3.92 -3.926,10.29 0,14.21 l 140.437,140.46 c 1.887,1.89 4.442,2.95 7.106,2.95 2.672,0 5.226,-1.06 7.113,-2.95 l 48.563,-48.57 c 3.925,-3.93 3.925,-10.3 0,-14.22 l -39.594,-39.61 c -8.016,-8.02 -8.016,-21.07 0,-29.08 3.883,-3.89 9.051,-6.03 14.543,-6.03 5.488,0 10.656,2.14 14.547,6.02 l 39.593,39.61 c 1.89,1.89 4.45,2.95 7.11,2.95 2.67,0 5.23,-1.06 7.11,-2.95 l 33.26,-33.26 c 1.88,-1.89 2.95,-4.44 2.95,-7.11 0,-2.66 -1.07,-5.22 -2.95,-7.11 l -39.61,-39.61 c -8.01,-8.02 -8.01,-21.067 0,-29.087 3.89,-3.886 9.06,-6.027 14.55,-6.027 5.49,0 10.65,2.141 14.54,6.024 l 39.61,39.62 c 1.89,1.88 4.45,2.95 7.11,2.95 2.67,0 5.23,-1.07 7.11,-2.95 l 42.64,-42.656 c 1.93,-1.918 2.99,-4.539 2.95,-7.261 z m 173.87,89.707 64.28,-64.289 c 1.92,-1.922 2.99,-4.539 2.95,-7.27 -0.05,-2.723 -1.19,-5.305 -3.18,-7.176 L 941.336,571.441 c -1.938,-1.824 -4.41,-2.722 -6.883,-2.722 -2.578,0 -5.14,0.988 -7.105,2.945 l -63.395,63.414 c -1.93,1.918 -2.984,4.547 -2.945,7.262 0.035,2.715 1.18,5.305 3.156,7.168 l 435.816,410.632 c 1.94,1.83 4.41,2.74 6.89,2.74 2.58,0 5.15,-0.99 7.11,-2.95 z m 92.49,91.26 171.07,-171.085 c 1.89,-1.886 2.95,-4.445 2.95,-7.113 0,-2.668 -1.06,-5.226 -2.95,-7.109 l -48.57,-48.574 c -1.88,-1.887 -4.44,-2.946 -7.11,-2.946 -2.66,0 -5.22,1.059 -7.1,2.946 L 1343.69,1088.4 c -3.92,3.93 -3.92,10.29 0,14.22 l 48.57,48.57 c 1.96,1.96 4.54,2.95 7.11,2.95 2.57,0 5.14,-0.99 7.1,-2.95 z m 212.69,-136.37 c -1.52,-2.77 -4.26,-4.66 -7.39,-5.1 -0.47,-0.06 -0.94,-0.1 -1.41,-0.1 -2.64,0 -5.2,1.04 -7.11,2.95 l -163.73,163.76 c -2.29,2.29 -3.33,5.55 -2.81,8.75 0.53,3.2 2.57,5.94 5.49,7.38 15.05,7.4 31.67,11.16 49.4,11.16 36.46,0 74.4,-16.18 101.49,-43.28 41.62,-41.63 51.86,-98.75 26.07,-145.52 z m -932.613,87.45 c 0,76.23 -95.492,143.09 -204.348,143.09 -106.945,0 -204.344,-68.2 -204.344,-143.09 0,-11.34 9.235,-20.58 20.579,-20.58 h 91.882 c 5.551,0 10.051,-4.5 10.051,-10.05 v -74.913 c 0,-3.653 -1.98,-7.016 -5.179,-8.789 -1.516,-0.844 -3.192,-1.262 -4.872,-1.262 -1.851,0 -3.703,0.512 -5.324,1.527 l -14.398,8.992 c -3.293,2.067 -7.074,3.155 -10.914,3.155 -7.137,0 -13.649,-3.612 -17.434,-9.682 -2.914,-4.664 -3.84,-10.188 -2.605,-15.547 1.238,-5.351 4.476,-9.894 9.136,-12.801 l 46.871,-29.297 c 2.934,-1.839 4.719,-5.062 4.719,-8.527 V 812.957 c 0,-3.648 -1.98,-7.019 -5.179,-8.789 -1.516,-0.844 -3.192,-1.262 -4.872,-1.262 -1.851,0 -3.703,0.512 -5.324,1.528 l -14.398,8.992 c -3.289,2.058 -7.059,3.148 -10.895,3.148 -7.14,0 -13.668,-3.617 -17.453,-9.676 -2.914,-4.664 -3.84,-10.187 -2.605,-15.546 1.238,-5.348 4.476,-9.895 9.136,-12.801 l 46.871,-29.297 c 2.934,-1.844 4.719,-5.063 4.719,-8.527 V 629.191 c 0,-3.652 -1.98,-7.019 -5.179,-8.793 -1.516,-0.843 -3.192,-1.261 -4.872,-1.261 -1.851,0 -3.703,0.511 -5.324,1.527 l -14.398,8.992 c -3.293,2.071 -7.074,3.157 -10.914,3.157 -7.137,0 -13.649,-3.614 -17.434,-9.684 -2.914,-4.664 -3.84,-10.188 -2.605,-15.543 1.238,-5.352 4.476,-9.898 9.136,-12.805 l 46.871,-29.297 c 2.934,-1.839 4.719,-5.058 4.719,-8.523 V 397.82 c 0,-4.07 1.196,-8.019 3.457,-11.41 l 61.258,-91.89 c 3.82,-5.739 10.223,-9.161 17.117,-9.161 6.899,0 13.297,3.422 17.121,9.161 l 61.258,91.89 c 2.262,3.391 3.453,7.34 3.453,11.41 v 44.282 c 0,3.66 1.985,7.019 5.18,8.789 1.519,0.847 3.195,1.269 4.875,1.269 1.848,0 3.699,-0.512 5.324,-1.531 l 14.403,-9 c 3.269,-2.039 7.027,-3.129 10.871,-3.129 7.16,0 13.687,3.609 17.468,9.66 2.918,4.672 3.844,10.192 2.606,15.551 -1.235,5.348 -4.477,9.891 -9.133,12.801 l -46.871,29.297 c -2.934,1.839 -4.723,5.062 -4.723,8.523 v 111.543 c 0,3.648 1.985,7.016 5.18,8.789 1.519,0.844 3.195,1.262 4.875,1.262 1.848,0 3.699,-0.512 5.324,-1.528 l 14.403,-8.996 c 3.269,-2.047 7.027,-3.132 10.871,-3.132 7.16,0 13.687,3.609 17.468,9.664 2.918,4.664 3.844,10.183 2.606,15.546 -1.235,5.348 -4.477,9.895 -9.133,12.801 l -46.871,29.297 c -2.934,1.84 -4.723,5.063 -4.723,8.524 v 111.539 c 0,3.652 1.985,7.019 5.18,8.793 1.519,0.843 3.195,1.257 4.875,1.257 1.848,0 3.699,-0.507 5.324,-1.523 l 14.403,-8.996 c 3.269,-2.047 7.027,-3.137 10.871,-3.137 7.16,0 13.687,3.61 17.468,9.668 2.918,4.664 3.844,10.184 2.606,15.547 -1.235,5.348 -4.477,9.891 -9.133,12.797 l -46.871,29.301 c -2.934,1.84 -4.723,5.058 -4.723,8.527 v 189.765 c 0,5.55 4.504,10.05 10.055,10.05 h 91.883 c 11.344,0 20.578,9.24 20.578,20.58 z M 441.52,518.672 c 0,3.66 1.984,7.019 5.175,8.789 1.524,0.848 3.2,1.269 4.875,1.269 1.852,0 3.703,-0.511 5.328,-1.531 l 61.254,-38.289 c 2.942,-1.84 4.731,-5.058 4.731,-8.519 V 407.09 c 0,-1.981 -0.59,-3.918 -1.692,-5.57 l -30.628,-45.95 c -1.864,-2.789 -5,-4.468 -8.364,-4.468 -3.363,0 -6.496,1.679 -8.363,4.468 l -30.629,45.95 c -1.098,1.652 -1.687,3.589 -1.687,5.57 z m 0,183.769 c 0,3.661 1.984,7.02 5.175,8.793 1.524,0.844 3.2,1.262 4.875,1.262 1.852,0 3.703,-0.512 5.328,-1.527 l 61.254,-38.285 c 2.942,-1.84 4.731,-5.059 4.731,-8.528 V 552.621 c 0,-3.66 -1.985,-7.019 -5.18,-8.793 -1.523,-0.84 -3.195,-1.258 -4.875,-1.258 -1.851,0 -3.699,0.512 -5.324,1.52 l -61.258,38.293 c -2.937,1.836 -4.726,5.058 -4.726,8.523 z m 0,183.77 c 0,3.656 1.984,7.019 5.175,8.793 1.524,0.844 3.2,1.258 4.875,1.258 1.852,0 3.703,-0.508 5.328,-1.524 l 61.254,-38.289 c 2.942,-1.84 4.731,-5.058 4.731,-8.523 V 736.391 c 0,-3.657 -1.985,-7.02 -5.18,-8.793 -1.523,-0.844 -3.195,-1.262 -4.875,-1.262 -1.851,0 -3.699,0.512 -5.324,1.527 l -61.258,38.285 c -2.937,1.84 -4.726,5.063 -4.726,8.528 z m 0,185.429 c 0,5.55 4.5,10.05 10.05,10.05 h 61.258 c 5.551,0 10.055,-4.5 10.055,-10.05 V 920.156 c 0,-3.656 -1.985,-7.019 -5.18,-8.789 -1.523,-0.844 -3.195,-1.262 -4.875,-1.262 -1.851,0 -3.699,0.512 -5.324,1.528 l -61.258,38.285 c -2.937,1.84 -4.726,5.059 -4.726,8.523 z m 191.457,56.62 c -1.735,-3.33 -5.168,-5.42 -8.926,-5.42 H 341.086 c -3.785,0 -7.25,2.13 -8.965,5.51 -1.711,3.37 -1.387,7.42 0.844,10.47 23.777,32.55 79.144,65.38 149.234,65.38 71.821,0 127.125,-32.9 150.074,-65.52 2.161,-3.07 2.43,-7.09 0.704,-10.42" /><path
         id="path16"
         style="fill:#231f20;fill-opacity:1;fill-rule:nonzero;stroke:none"
         d="m 1478.03,413.59 86.99,136.89 h -75.07 L 1420.62,434.352 V 550.48 h -64.91 V 236.52 h 64.91 v 102.449 l 14.13,24.281 58.74,-126.73 h 73.74 z m 66.68,298.383 0.44,220.789 h -64.91 L 1479.8,711.531 C 1480.24,692.543 1468.76,674 1447.56,674 c -22.96,0 -32.23,18.543 -32.67,37.531 l 0.44,221.231 h -64.91 V 711.973 c 0,-52.106 35.32,-98.914 97.14,-98.914 61.82,0 97.59,46.808 97.15,98.914 z m -64.47,543.007 h 64.91 l -37.4,60.5 h -163.96 v -60.5 h 71.98 v -253.02 h 64.47 z M 1295.21,711.973 v 128.496 c 0,52.551 -37.97,99.355 -101.56,99.355 -63.59,0 -101.57,-46.804 -101.57,-99.355 V 711.973 c 0,-53.43 37.54,-99.797 101.57,-99.797 64.03,0 101.56,46.367 101.56,99.797 z m -64.91,-0.883 c 0,-19.434 -11.93,-37.977 -36.65,-37.977 -24.73,0 -36.66,18.543 -36.66,37.977 v 129.824 c 0,18.988 12.37,37.977 36.66,37.977 24.29,0 36.65,-18.989 36.65,-37.977 z m 64.91,383.6 v 128.5 c 0,52.55 -37.97,99.36 -101.56,99.36 -63.59,0 -101.57,-46.81 -101.57,-99.36 v -128.5 c 0,-53.43 37.54,-99.795 101.57,-99.795 64.03,0 101.56,46.365 101.56,99.795 z m -64.91,-0.88 c 0,-19.43 -11.93,-37.98 -36.65,-37.98 -24.73,0 -36.66,18.55 -36.66,37.98 v 129.82 c 0,18.99 12.37,37.98 36.66,37.98 24.29,0 36.65,-18.99 36.65,-37.98 z m -259.655,-91.85 82.575,313.96 h -68.884 l -44.598,-198.71 -45.492,198.71 h -68 L 907.5,1001.96 Z M 943.266,550.48 h -97.59 V 236.52 h 99.797 c 67.567,0 98.917,46.812 98.917,95.82 0,27.82 -11.93,55.64 -37.54,72.859 22.08,13.692 30.92,36.211 30.92,60.063 0,39.738 -23.85,85.218 -94.504,85.218 z M 910.145,368.551 h 32.683 c 22.07,0 36.203,-13.692 36.203,-36.211 0,-22.52 -14.133,-35.77 -36.203,-35.77 h -32.683 z m 30.914,121.879 c 20.312,0 32.238,-11.481 32.238,-30.91 0,-19.43 -11.926,-30.911 -32.684,-30.911 H 910.145 V 490.43 Z M 1051.9,619.238 987.863,752.152 c 37.097,16.786 52.547,53.434 52.547,85.668 0,44.16 -28.7,95.383 -101.117,95.383 H 846.559 V 619.238 h 64.472 v 123.203 h 14.574 L 979.031,619.238 Z M 975.941,837.82 c 0,-22.515 -13.687,-35.765 -35.765,-35.765 h -29.145 v 71.093 h 29.145 c 22.078,0 35.765,-13.246 35.765,-35.328 z M 1281.52,550.48 H 1108.87 V 236.52 h 172.65 v 60.5 h -108.19 v 70.21 h 101.57 v 60.942 h -101.57 v 61.816 h 108.19 v 60.492" /></g></g></svg>